<svg xmlns="http://www.w3.org/2000/svg" xmlns:xlink="http://www.w3.org/1999/xlink" width="1920" zoomAndPan="magnify" viewBox="0 0 1440 809.999993" height="1080" preserveAspectRatio="xMidYMid meet" version="1.0"><defs><clipPath id="e98897a442"><path d="M 712.167969 377 L 726 377 L 726 441 L 712.167969 441 Z M 712.167969 377 " clip-rule="nonzero"/></clipPath><clipPath id="61fa6af93c"><path d="M 719.058594 440.40625 L 712.84375 437.234375 L 712.84375 384.667969 C 712.84375 380.71875 715.628906 377.546875 719.058594 377.546875 L 725.273438 380.71875 L 725.273438 433.285156 C 725.273438 437.234375 722.492188 440.40625 719.058594 440.40625 " clip-rule="nonzero"/></clipPath><clipPath id="04875e5571"><path d="M 714 452 L 724 452 L 724 505 L 714 505 Z M 714 452 " clip-rule="nonzero"/></clipPath><clipPath id="d49445d6d2"><path d="M 719.058594 504.691406 L 714.464844 502.039062 L 714.464844 458.46875 C 714.464844 455.234375 716.535156 452.578125 719.058594 452.578125 L 723.65625 455.234375 L 723.65625 498.800781 C 723.65625 502.039062 721.585938 504.691406 719.058594 504.691406 " clip-rule="nonzero"/></clipPath><clipPath id="1a42711063"><path d="M 715 519 L 722.609375 519 L 722.609375 563.753906 L 715 563.753906 Z M 715 519 " clip-rule="nonzero"/></clipPath><clipPath id="c8564d2283"><path d="M 719.058594 563.34375 L 715.953125 561.078125 L 715.953125 524.046875 C 715.953125 521.265625 717.3125 519.0625 719.058594 519.0625 L 722.167969 521.328125 L 722.167969 558.359375 C 722.167969 561.144531 720.808594 563.34375 719.058594 563.34375 " clip-rule="nonzero"/></clipPath><clipPath id="50076cae82"><path d="M 712.167969 155 L 726 155 L 726 219 L 712.167969 219 Z M 712.167969 155 " clip-rule="nonzero"/></clipPath><clipPath id="ee7c410602"><path d="M 719.058594 155.304688 L 712.84375 158.476562 L 712.84375 211.042969 C 712.84375 214.992188 715.628906 218.164062 719.058594 218.164062 L 725.273438 214.992188 L 725.273438 162.359375 C 725.273438 158.414062 722.492188 155.238281 719.058594 155.238281 " clip-rule="nonzero"/></clipPath><clipPath id="7d8f54bcb6"><path d="M 714 91 L 724 91 L 724 143.546875 L 714 143.546875 Z M 714 91 " clip-rule="nonzero"/></clipPath><clipPath id="cb50be6358"><path d="M 719.058594 91.019531 L 714.464844 93.675781 L 714.464844 137.242188 C 714.464844 140.480469 716.535156 143.132812 719.058594 143.132812 L 723.65625 140.480469 L 723.65625 96.910156 C 723.65625 93.675781 721.585938 91.019531 719.058594 91.019531 " clip-rule="nonzero"/></clipPath><clipPath id="09b1e4bb41"><path d="M 715 32 L 722.609375 32 L 722.609375 77 L 715 77 Z M 715 32 " clip-rule="nonzero"/></clipPath><clipPath id="2825c1f43c"><path d="M 719.058594 32.367188 L 715.953125 34.632812 L 715.953125 71.664062 C 715.953125 74.449219 717.3125 76.648438 719.058594 76.648438 L 722.167969 74.382812 L 722.167969 37.351562 C 722.167969 34.570312 720.808594 32.367188 719.058594 32.367188 " clip-rule="nonzero"/></clipPath><clipPath id="9e783ce381"><path d="M 667 246 L 773 246 L 773 352 L 667 352 Z M 667 246 " clip-rule="nonzero"/></clipPath><clipPath id="fdd561ab88"><path d="M 772.273438 299.085938 C 772.273438 327.960938 748.839844 351.394531 719.964844 351.394531 C 691.09375 351.394531 667.660156 327.960938 667.660156 299.085938 C 667.660156 270.214844 691.09375 246.777344 719.964844 246.777344 C 748.839844 246.777344 772.273438 270.214844 772.273438 299.085938 " clip-rule="nonzero"/></clipPath><clipPath id="e8d9beff19"><path d="M 794 292.316406 L 858 292.316406 L 858 305.367188 L 794 305.367188 Z M 794 292.316406 " clip-rule="nonzero"/></clipPath><clipPath id="6610d2153d"><path d="M 857.402344 299.085938 L 854.230469 305.300781 L 801.664062 305.300781 C 797.714844 305.300781 794.542969 302.515625 794.542969 299.085938 L 797.714844 292.871094 L 850.28125 292.871094 C 854.167969 292.871094 857.402344 295.65625 857.402344 299.085938 " clip-rule="nonzero"/></clipPath><clipPath id="f6c66c8021"><path d="M 869 294 L 922 294 L 922 304 L 869 304 Z M 869 294 " clip-rule="nonzero"/></clipPath><clipPath id="c2356c1da2"><path d="M 921.6875 299.085938 L 919.035156 303.683594 L 875.464844 303.683594 C 872.226562 303.683594 869.574219 301.609375 869.574219 299.085938 L 872.226562 294.488281 L 915.796875 294.488281 C 919.035156 294.488281 921.6875 296.5625 921.6875 299.085938 " clip-rule="nonzero"/></clipPath><clipPath id="f07d3b7031"><path d="M 936 295 L 980.996094 295 L 980.996094 302.757812 L 936 302.757812 Z M 936 295 " clip-rule="nonzero"/></clipPath><clipPath id="9e7e6b7978"><path d="M 980.339844 299.085938 L 978.074219 302.195312 L 941.042969 302.195312 C 938.261719 302.195312 936.058594 300.835938 936.058594 299.085938 L 938.324219 295.980469 L 975.355469 295.980469 C 978.136719 295.980469 980.339844 297.402344 980.339844 299.085938 " clip-rule="nonzero"/></clipPath><clipPath id="b70ba0a8ae"><path d="M 583 292.316406 L 646.917969 292.316406 L 646.917969 305.367188 L 583 305.367188 Z M 583 292.316406 " clip-rule="nonzero"/></clipPath><clipPath id="53d9cb37f0"><path d="M 583.886719 299.085938 L 587.058594 305.300781 L 639.625 305.300781 C 643.574219 305.300781 646.75 302.515625 646.75 299.085938 L 643.574219 292.871094 L 591.007812 292.871094 C 587.125 292.871094 583.886719 295.65625 583.886719 299.085938 " clip-rule="nonzero"/></clipPath><clipPath id="3ca1eb492c"><path d="M 519.03125 294 L 572 294 L 572 304 L 519.03125 304 Z M 519.03125 294 " clip-rule="nonzero"/></clipPath><clipPath id="70c4b1f4f7"><path d="M 519.667969 299.085938 L 522.324219 303.683594 L 565.890625 303.683594 C 569.128906 303.683594 571.78125 301.609375 571.78125 299.085938 L 569.128906 294.488281 L 525.496094 294.488281 C 522.257812 294.488281 519.605469 296.5625 519.605469 299.085938 " clip-rule="nonzero"/></clipPath><clipPath id="d664340960"><path d="M 461 295 L 505.980469 295 L 505.980469 302.757812 L 461 302.757812 Z M 461 295 " clip-rule="nonzero"/></clipPath><clipPath id="4aa1a1c81e"><path d="M 461.015625 299.085938 L 463.28125 302.195312 L 500.3125 302.195312 C 503.097656 302.195312 505.296875 300.835938 505.296875 299.085938 L 503.03125 295.980469 L 466 295.980469 C 463.21875 295.980469 461.015625 297.402344 461.015625 299.085938 " clip-rule="nonzero"/></clipPath><clipPath id="cf20262f98"><path d="M 765 341 L 1022 341 L 1022 777.773438 L 765 777.773438 Z M 765 341 " clip-rule="nonzero"/></clipPath><clipPath id="1435b23c37"><path d="M 905.761719 739.625 C 929.457031 728.296875 933.535156 696.898438 934.3125 688.289062 C 936.125 668.738281 931.269531 648.796875 922.660156 634.683594 C 962.214844 625.945312 956 673.269531 967.976562 686.796875 L 972.828125 689.582031 C 1008.046875 686.605469 1036.464844 727.710938 1013.226562 751.210938 C 997.300781 701.234375 942.402344 729.203125 919.679688 756.195312 C 895.46875 778.144531 862.777344 782.414062 832.351562 772.574219 C 758.9375 746.550781 742.625 627.757812 800.953125 586.84375 C 834.617188 563.214844 793.441406 508.058594 820.308594 495.886719 L 826.523438 492.199219 C 827.882812 486.824219 826.199219 484.171875 825.617188 483.199219 C 814.871094 465.460938 782.308594 379.621094 786.582031 371.332031 L 791.113281 367.449219 C 793.054688 358.515625 792.277344 356.960938 793.25 353.011719 C 794.867188 346.605469 800.433594 340.972656 802.699219 341.878906 C 805.355469 342.914062 803.671875 353.140625 803.152344 357.671875 C 797.328125 404.027344 832.609375 453.289062 846.074219 464.167969 C 850.734375 467.921875 858.699219 471.871094 860.964844 470.445312 L 862.0625 469.34375 C 865.367188 459.117188 850.089844 459.699219 844.84375 454.195312 L 844.519531 453.613281 C 839.535156 442.15625 849.3125 403.3125 874.039062 398.847656 C 875.789062 398.523438 884.65625 397.097656 896.050781 403.507812 C 913.726562 413.414062 930.492188 428.300781 928.808594 462.289062 C 926.996094 498.605469 971.210938 521.199219 956.644531 560.625 L 950.949219 568.457031 C 928.355469 540.105469 885.046875 568.652344 883.492188 532.660156 L 880.386719 524.113281 C 840.378906 552.339844 877.40625 596.554688 851.316406 621.347656 C 846.398438 626.074219 843.421875 626.140625 840.507812 628.535156 L 839.210938 629.765625 C 834.679688 635.074219 809.238281 678.382812 833.96875 713.921875 C 849.3125 735.933594 881.484375 751.40625 905.699219 739.816406 " clip-rule="nonzero"/></clipPath><clipPath id="14f69d0ad5"><path d="M 418 341 L 675 341 L 675 777.773438 L 418 777.773438 Z M 418 341 " clip-rule="nonzero"/></clipPath><clipPath id="cf830fa5f7"><path d="M 534.234375 739.625 C 510.539062 728.296875 506.460938 696.898438 505.683594 688.289062 C 503.871094 668.738281 508.726562 648.796875 517.339844 634.683594 C 477.785156 625.945312 484 673.269531 472.023438 686.796875 L 467.167969 689.582031 C 431.949219 686.605469 403.53125 727.710938 426.769531 751.210938 C 442.695312 701.234375 497.59375 729.203125 520.316406 756.195312 C 544.527344 778.144531 577.21875 782.414062 607.648438 772.574219 C 681.058594 746.550781 697.371094 627.757812 639.042969 586.84375 C 605.382812 563.214844 646.554688 508.058594 619.6875 495.886719 L 613.472656 492.199219 C 612.113281 486.824219 613.796875 484.171875 614.378906 483.199219 C 625.125 465.460938 657.6875 379.621094 653.417969 371.332031 L 648.882812 367.449219 C 646.941406 358.515625 647.71875 356.960938 646.75 353.011719 C 645.128906 346.605469 639.5625 340.972656 637.296875 341.878906 C 634.640625 342.914062 636.324219 353.140625 636.84375 357.671875 C 642.667969 404.027344 607.386719 453.289062 593.921875 464.167969 C 589.261719 467.921875 581.296875 471.871094 579.03125 470.445312 L 577.933594 469.34375 C 574.628906 459.117188 589.910156 459.699219 595.152344 454.195312 L 595.476562 453.613281 C 600.460938 442.15625 590.6875 403.3125 565.957031 398.847656 C 564.207031 398.523438 555.339844 397.097656 543.945312 403.507812 C 526.273438 413.414062 509.503906 428.300781 511.1875 462.289062 C 513 498.605469 468.785156 521.199219 483.351562 560.625 L 489.046875 568.457031 C 511.640625 540.105469 554.949219 568.652344 556.503906 532.660156 L 559.613281 524.113281 C 599.621094 552.339844 562.589844 596.554688 588.679688 621.347656 C 593.597656 626.074219 596.578125 626.140625 599.488281 628.535156 L 600.785156 629.765625 C 605.316406 635.074219 630.757812 678.382812 606.027344 713.921875 C 590.6875 735.933594 558.511719 751.40625 534.300781 739.816406 " clip-rule="nonzero"/></clipPath><clipPath id="8d0af10a61"><path d="M 775 199 L 824 199 L 824 247 L 775 247 Z M 775 199 " clip-rule="nonzero"/></clipPath><clipPath id="28da54d3ec"><path d="M 821.734375 200.621094 L 823.871094 207.289062 L 786.710938 244.449219 C 783.925781 247.230469 779.71875 247.492188 777.324219 245.09375 L 775.1875 238.492188 L 812.347656 201.332031 C 815.128906 198.550781 819.335938 198.289062 821.734375 200.6875 " clip-rule="nonzero"/></clipPath><clipPath id="ad073d0401"><path d="M 828 154 L 868.765625 154 L 868.765625 193.136719 L 828 193.136719 Z M 828 154 " clip-rule="nonzero"/></clipPath><clipPath id="fa2ca3d346"><path d="M 867.113281 155.175781 L 868.472656 160.289062 L 837.660156 191.105469 C 835.394531 193.371094 832.027344 193.824219 830.277344 192.011719 L 828.917969 186.898438 L 859.734375 156.082031 C 862 153.816406 865.367188 153.363281 867.113281 155.175781 " clip-rule="nonzero"/></clipPath><clipPath id="4657e412a1"><path d="M 876.597656 113 L 910 113 L 910 146 L 876.597656 146 Z M 876.597656 113 " clip-rule="nonzero"/></clipPath><clipPath id="c25a68277a"><path d="M 908.609375 113.679688 L 909.257812 117.433594 L 883.039062 143.652344 C 881.097656 145.59375 878.507812 146.175781 877.277344 145.011719 L 876.628906 141.257812 L 902.847656 115.039062 C 904.792969 113.097656 907.378906 112.511719 908.609375 113.679688 " clip-rule="nonzero"/></clipPath><clipPath id="3b4613fc61"><path d="M 612 200 L 661 200 L 661 249 L 612 249 Z M 612 200 " clip-rule="nonzero"/></clipPath><clipPath id="c7d5e19eaa"><path d="M 614.316406 202.109375 L 612.179688 208.777344 L 649.335938 245.9375 C 652.121094 248.722656 656.328125 248.980469 658.722656 246.585938 L 660.859375 239.980469 L 623.703125 202.820312 C 620.917969 200.039062 616.710938 199.78125 614.316406 202.175781 " clip-rule="nonzero"/></clipPath><clipPath id="32608d8734"><path d="M 568 155 L 607.769531 155 L 607.769531 195 L 568 195 Z M 568 155 " clip-rule="nonzero"/></clipPath><clipPath id="c0cc5a98ab"><path d="M 569.453125 156.664062 L 568.09375 161.777344 L 598.90625 192.59375 C 601.238281 194.859375 604.539062 195.3125 606.289062 193.5 L 607.648438 188.386719 L 576.832031 157.570312 C 574.5 155.304688 571.199219 154.851562 569.453125 156.664062 " clip-rule="nonzero"/></clipPath><clipPath id="e1dae789c9"><path d="M 530 114 L 563.398438 114 L 563.398438 148 L 530 148 Z M 530 114 " clip-rule="nonzero"/></clipPath><clipPath id="d02e511f88"><path d="M 531.128906 115.234375 L 530.480469 118.988281 L 556.699219 145.207031 C 558.640625 147.148438 561.230469 147.730469 562.394531 146.566406 L 563.042969 142.8125 L 536.824219 116.527344 C 534.882812 114.585938 532.292969 114.003906 531.0625 115.167969 " clip-rule="nonzero"/></clipPath></defs><g clip-path="url(#e98897a442)"><g clip-path="url(#61fa6af93c)"><path fill="#b49f79" d="M 385.921875 0 L 1054.074219 0 L 1054.074219 809.09375 L 385.921875 809.09375 Z M 385.921875 0 " fill-opacity="1" fill-rule="nonzero"/></g></g><g clip-path="url(#04875e5571)"><g clip-path="url(#d49445d6d2)"><path fill="#b49f79" d="M 385.921875 0 L 1054.074219 0 L 1054.074219 809.09375 L 385.921875 809.09375 Z M 385.921875 0 " fill-opacity="1" fill-rule="nonzero"/></g></g><g clip-path="url(#1a42711063)"><g clip-path="url(#c8564d2283)"><path fill="#b49f79" d="M 385.921875 0 L 1054.074219 0 L 1054.074219 809.09375 L 385.921875 809.09375 Z M 385.921875 0 " fill-opacity="1" fill-rule="nonzero"/></g></g><g clip-path="url(#50076cae82)"><g clip-path="url(#ee7c410602)"><path fill="#b49f79" d="M 385.921875 0 L 1054.074219 0 L 1054.074219 809.09375 L 385.921875 809.09375 Z M 385.921875 0 " fill-opacity="1" fill-rule="nonzero"/></g></g><g clip-path="url(#7d8f54bcb6)"><g clip-path="url(#cb50be6358)"><path fill="#b49f79" d="M 385.921875 0 L 1054.074219 0 L 1054.074219 809.09375 L 385.921875 809.09375 Z M 385.921875 0 " fill-opacity="1" fill-rule="nonzero"/></g></g><g clip-path="url(#09b1e4bb41)"><g clip-path="url(#2825c1f43c)"><path fill="#b49f79" d="M 385.921875 0 L 1054.074219 0 L 1054.074219 809.09375 L 385.921875 809.09375 Z M 385.921875 0 " fill-opacity="1" fill-rule="nonzero"/></g></g><g clip-path="url(#9e783ce381)"><g clip-path="url(#fdd561ab88)"><path fill="#b49f79" d="M 385.921875 0 L 1054.074219 0 L 1054.074219 809.09375 L 385.921875 809.09375 Z M 385.921875 0 " fill-opacity="1" fill-rule="nonzero"/></g></g><g clip-path="url(#e8d9beff19)"><g clip-path="url(#6610d2153d)"><path fill="#b49f79" d="M 385.921875 0 L 1054.074219 0 L 1054.074219 809.09375 L 385.921875 809.09375 Z M 385.921875 0 " fill-opacity="1" fill-rule="nonzero"/></g></g><g clip-path="url(#f6c66c8021)"><g clip-path="url(#c2356c1da2)"><path fill="#b49f79" d="M 385.921875 0 L 1054.074219 0 L 1054.074219 809.09375 L 385.921875 809.09375 Z M 385.921875 0 " fill-opacity="1" fill-rule="nonzero"/></g></g><g clip-path="url(#f07d3b7031)"><g clip-path="url(#9e7e6b7978)"><path fill="#b49f79" d="M 385.921875 0 L 1054.074219 0 L 1054.074219 809.09375 L 385.921875 809.09375 Z M 385.921875 0 " fill-opacity="1" fill-rule="nonzero"/></g></g><g clip-path="url(#b70ba0a8ae)"><g clip-path="url(#53d9cb37f0)"><path fill="#b49f79" d="M 385.921875 0 L 1054.074219 0 L 1054.074219 809.09375 L 385.921875 809.09375 Z M 385.921875 0 " fill-opacity="1" fill-rule="nonzero"/></g></g><g clip-path="url(#3ca1eb492c)"><g clip-path="url(#70c4b1f4f7)"><path fill="#b49f79" d="M 385.921875 0 L 1054.074219 0 L 1054.074219 809.09375 L 385.921875 809.09375 Z M 385.921875 0 " fill-opacity="1" fill-rule="nonzero"/></g></g><g clip-path="url(#d664340960)"><g clip-path="url(#4aa1a1c81e)"><path fill="#b49f79" d="M 385.921875 0 L 1054.074219 0 L 1054.074219 809.09375 L 385.921875 809.09375 Z M 385.921875 0 " fill-opacity="1" fill-rule="nonzero"/></g></g><g clip-path="url(#cf20262f98)"><g clip-path="url(#1435b23c37)"><path fill="#b49f79" d="M 385.921875 0 L 1054.074219 0 L 1054.074219 809.09375 L 385.921875 809.09375 Z M 385.921875 0 " fill-opacity="1" fill-rule="nonzero"/></g></g><g clip-path="url(#14f69d0ad5)"><g clip-path="url(#cf830fa5f7)"><path fill="#b49f79" d="M 385.921875 0 L 1054.074219 0 L 1054.074219 809.09375 L 385.921875 809.09375 Z M 385.921875 0 " fill-opacity="1" fill-rule="nonzero"/></g></g><g clip-path="url(#8d0af10a61)"><g clip-path="url(#28da54d3ec)"><path fill="#b49f79" d="M 385.921875 0 L 1054.074219 0 L 1054.074219 809.09375 L 385.921875 809.09375 Z M 385.921875 0 " fill-opacity="1" fill-rule="nonzero"/></g></g><g clip-path="url(#ad073d0401)"><g clip-path="url(#fa2ca3d346)"><path fill="#b49f79" d="M 385.921875 0 L 1054.074219 0 L 1054.074219 809.09375 L 385.921875 809.09375 Z M 385.921875 0 " fill-opacity="1" fill-rule="nonzero"/></g></g><g clip-path="url(#4657e412a1)"><g clip-path="url(#c25a68277a)"><path fill="#b49f79" d="M 385.921875 0 L 1054.074219 0 L 1054.074219 809.09375 L 385.921875 809.09375 Z M 385.921875 0 " fill-opacity="1" fill-rule="nonzero"/></g></g><g clip-path="url(#3b4613fc61)"><g clip-path="url(#c7d5e19eaa)"><path fill="#b49f79" d="M 385.921875 0 L 1054.074219 0 L 1054.074219 809.09375 L 385.921875 809.09375 Z M 385.921875 0 " fill-opacity="1" fill-rule="nonzero"/></g></g><g clip-path="url(#32608d8734)"><g clip-path="url(#c0cc5a98ab)"><path fill="#b49f79" d="M 385.921875 0 L 1054.074219 0 L 1054.074219 809.09375 L 385.921875 809.09375 Z M 385.921875 0 " fill-opacity="1" fill-rule="nonzero"/></g></g><g clip-path="url(#e1dae789c9)"><g clip-path="url(#d02e511f88)"><path fill="#b49f79" d="M 385.921875 0 L 1054.074219 0 L 1054.074219 809.09375 L 385.921875 809.09375 Z M 385.921875 0 " fill-opacity="1" fill-rule="nonzero"/></g></g></svg>